<svg width="19" height="18" viewBox="0 0 19 18" fill="none" xmlns="http://www.w3.org/2000/svg">
<path d="M7.4859 1.79241C8.2439 0.40253 10.2396 0.40253 10.9976 1.79241L12.214 4.02278C12.5016 4.55023 13.0111 4.92043 13.6017 5.03102L16.0988 5.49864C17.6549 5.79004 18.2716 7.68812 17.1839 8.83852L15.4386 10.6845C15.0259 11.1211 14.8312 11.7201 14.9085 12.3159L15.2355 14.8353C15.4392 16.4052 13.8246 17.5783 12.3944 16.8994L10.0994 15.8099C9.5566 15.5523 8.9268 15.5523 8.3841 15.8099L6.08902 16.8994C4.65883 17.5783 3.04427 16.4052 3.24799 14.8353L3.5749 12.3159C3.65221 11.7201 3.45758 11.1211 3.04483 10.6845L1.29951 8.83852C0.211887 7.68812 0.828588 5.79004 2.38469 5.49864L4.88177 5.03102C5.4723 4.92043 5.98184 4.55023 6.26949 4.02278L7.4859 1.79241Z" stroke="#E4010C" stroke-width="1.5" stroke-linejoin="round"/>
</svg>
