<svg width="24" height="24" viewBox="0 0 24 24" fill="none" xmlns="http://www.w3.org/2000/svg">
<path d="M21.6 20.5494C21.6838 20.6608 21.735 20.7934 21.7476 20.9323C21.7603 21.0711 21.734 21.2108 21.6716 21.3355C21.6093 21.4603 21.5134 21.5652 21.3948 21.6384C21.2762 21.7117 21.1394 21.7505 21 21.7503H3C2.86072 21.7503 2.72418 21.7115 2.6057 21.6383C2.48722 21.5651 2.39147 21.4603 2.32918 21.3357C2.26689 21.2112 2.24052 21.0717 2.25303 20.933C2.26554 20.7942 2.31643 20.6618 2.4 20.5503C3.06411 19.6599 3.94971 18.9589 4.96875 18.5169C4.41017 18.0071 4.01878 17.3403 3.84595 16.604C3.67313 15.8678 3.72695 15.0965 4.00034 14.3914C4.27374 13.6863 4.75394 13.0803 5.37791 12.653C6.00188 12.2257 6.74046 11.9971 7.49672 11.9971C8.25297 11.9971 8.99156 12.2257 9.61553 12.653C10.2395 13.0803 10.7197 13.6863 10.9931 14.3914C11.2665 15.0965 11.3203 15.8678 11.1475 16.604C10.9747 17.3403 10.5833 18.0071 10.0247 18.5169C10.7599 18.8347 11.428 19.2893 11.9934 19.8566C12.5589 19.2893 13.227 18.8347 13.9622 18.5169C13.4036 18.0071 13.0122 17.3403 12.8394 16.604C12.6666 15.8678 12.7204 15.0965 12.9938 14.3914C13.2672 13.6863 13.7474 13.0803 14.3713 12.653C14.9953 12.2257 15.7339 11.9971 16.4902 11.9971C17.2464 11.9971 17.985 12.2257 18.609 12.653C19.2329 13.0803 19.7131 13.6863 19.9865 14.3914C20.2599 15.0965 20.3137 15.8678 20.1409 16.604C19.9681 17.3403 19.5767 18.0071 19.0181 18.5169C20.0419 18.9566 20.9322 19.6575 21.6 20.5494ZM2.55 11.8503C2.62879 11.9094 2.71845 11.9524 2.81386 11.9769C2.90927 12.0013 3.00856 12.0067 3.10607 11.9928C3.20357 11.9789 3.29737 11.9459 3.38212 11.8957C3.46687 11.8455 3.54091 11.7791 3.6 11.7003C4.05409 11.0949 4.64291 10.6035 5.31983 10.265C5.99675 9.92653 6.74318 9.75032 7.5 9.75032C8.25682 9.75032 9.00325 9.92653 9.68017 10.265C10.3571 10.6035 10.9459 11.0949 11.4 11.7003C11.4699 11.7935 11.5604 11.8691 11.6646 11.9211C11.7687 11.9732 11.8836 12.0003 12 12.0003C12.1164 12.0003 12.2313 11.9732 12.3354 11.9211C12.4396 11.8691 12.5301 11.7935 12.6 11.7003C13.0541 11.0949 13.6429 10.6035 14.3198 10.265C14.9968 9.92653 15.7432 9.75032 16.5 9.75032C17.2568 9.75032 18.0032 9.92653 18.6802 10.265C19.3571 10.6035 19.9459 11.0949 20.4 11.7003C20.4592 11.7791 20.5333 11.8455 20.6181 11.8956C20.7029 11.9458 20.7967 11.9788 20.8943 11.9926C20.9918 12.0065 21.0911 12.0011 21.1866 11.9766C21.282 11.9521 21.3717 11.909 21.4505 11.8499C21.5293 11.7907 21.5956 11.7166 21.6458 11.6318C21.6959 11.547 21.7289 11.4531 21.7428 11.3556C21.7567 11.258 21.7512 11.1587 21.7267 11.0633C21.7022 10.9679 21.6592 10.8782 21.6 10.7994C20.9359 9.90926 20.0503 9.20852 19.0312 8.76689C19.5898 8.25707 19.9812 7.59029 20.154 6.85404C20.3269 6.1178 20.2731 5.34651 19.9997 4.6414C19.7263 3.93629 19.2461 3.33032 18.6221 2.90302C17.9981 2.47572 17.2595 2.24707 16.5033 2.24707C15.747 2.24707 15.0084 2.47572 14.3845 2.90302C13.7605 3.33032 13.2803 3.93629 13.0069 4.6414C12.7335 5.34651 12.6797 6.1178 12.8525 6.85404C13.0253 7.59029 13.4167 8.25707 13.9753 8.76689C13.2401 9.08468 12.572 9.5393 12.0066 10.1066C11.4411 9.5393 10.773 9.08468 10.0378 8.76689C10.5964 8.25707 10.9878 7.59029 11.1606 6.85404C11.3334 6.1178 11.2796 5.34651 11.0062 4.6414C10.7328 3.93629 10.2526 3.33032 9.62866 2.90302C9.00468 2.47572 8.2661 2.24707 7.50984 2.24707C6.75359 2.24707 6.015 2.47572 5.39103 2.90302C4.76706 3.33032 4.28686 3.93629 4.01347 4.6414C3.74007 5.34651 3.68625 6.1178 3.85908 6.85404C4.0319 7.59029 4.42329 8.25707 4.98188 8.76689C3.95805 9.20694 3.06774 9.90814 2.4 10.8003C2.34091 10.8791 2.29791 10.9688 2.27347 11.0642C2.24902 11.1596 2.24361 11.2589 2.25754 11.3564C2.27147 11.4539 2.30446 11.5477 2.35464 11.6324C2.40483 11.7172 2.47121 11.7912 2.55 11.8503Z" fill="#E4010C"/>
</svg>
