<svg width="16" height="16" viewBox="0 0 16 16" fill="none" xmlns="http://www.w3.org/2000/svg">
<path d="M13.6327 13.0975L9.82019 7.11L13.5527 3.00438C13.6837 2.85674 13.7512 2.66343 13.7406 2.46636C13.73 2.26929 13.6421 2.08435 13.4961 1.95161C13.35 1.81888 13.1575 1.74907 12.9603 1.75731C12.7632 1.76555 12.5772 1.85117 12.4427 1.99563L8.98831 5.79813L6.63269 2.0975C6.56499 1.99106 6.47154 1.90341 6.36098 1.84267C6.25042 1.78193 6.12633 1.75006 6.00019 1.75H3.00019C2.86584 1.75006 2.73397 1.78621 2.61837 1.85467C2.50277 1.92313 2.40768 2.02138 2.34304 2.13916C2.2784 2.25694 2.24659 2.38992 2.25092 2.5242C2.25526 2.65848 2.29559 2.78914 2.36769 2.9025L6.18019 8.89L2.44519 12.9956C2.37756 13.0683 2.32503 13.1536 2.29063 13.2467C2.25623 13.3398 2.24065 13.4388 2.24479 13.538C2.24894 13.6371 2.27272 13.7345 2.31477 13.8244C2.35681 13.9143 2.41628 13.9949 2.48973 14.0617C2.56318 14.1284 2.64915 14.18 2.74265 14.2132C2.83615 14.2465 2.93533 14.2609 3.03443 14.2556C3.13354 14.2502 3.2306 14.2253 3.31999 14.1822C3.40938 14.1391 3.48932 14.0786 3.55519 14.0044L7.01206 10.2019L9.36769 13.9025C9.43539 14.0089 9.52884 14.0966 9.63939 14.1573C9.74995 14.2181 9.87404 14.2499 10.0002 14.25H13.0002C13.1345 14.2499 13.2664 14.2138 13.382 14.1453C13.4976 14.0769 13.5927 13.9786 13.6573 13.8608C13.722 13.7431 13.7538 13.6101 13.7495 13.4758C13.7451 13.3415 13.7048 13.2109 13.6327 13.0975ZM10.4121 12.75L4.36644 3.25H5.58831L11.6339 12.75H10.4121Z" fill="white"/>
</svg>
